{"title":"Dawn of the Planet of the Apes 720p WEB-DL HC Subs fiveofseven","uid":11398082,"size":2113376085,"categoryP":"video","categoryS":"hd___movies","magnet":"?xt=urn:btih:11762372d336d19b5986620d79a13d4700817f05&amp;dn=Dawn+of+the+Planet+of+the+Apes+720p+WEB-DL+HC+Subs+fiveofseven&amp;tr=udp%3A%2F%2Ftracker.openbittorrent.com%3A80&amp;tr=udp%3A%2F%2Fopen.demonii.com%3A1337&amp;tr=udp%3A%2F%2Ftracker.coppersurfer.tk%3A6969&amp;tr=udp%3A%2F%2Fexodus.desync.com%3A6969","seeders":5,"leechers":0,"uploader":"fiveofseven","files":-1,"time":1415389756,"description":"Sign Language Subtitles Hardcoded\n\n\nPLOT - Ten years after a pandemic disease,\napes who have survived it are drawn into battle\nwith a group of human survivors.\n\n\nAAC 2.0 &amp; AC3 5.1 Audio\n\n\nSource - RARBG\n\nGeneral\nComplete name                            : C:uTorrentDawn of the Planet of the Apes 720p (2014 fiveofseven zombiRG) HC sign languageDawn of the Planet of the Apes 2014 720p fiveofseven zombiRG HC sign language.mp4\nFormat                                   : MPEG-4\nFormat profile                           : Base Media\nCodec ID                                 : isom\nFile size                                : 1.96 GiB\nDuration                                 : 2h 10mn\nOverall bit rate mode                    : Variable\nOverall bit rate                         : 2 151 Kbps\nEncoded date                             : UTC 2014-11-05 21:21:32\nTagged date                              : UTC 2014-11-05 21:21:32\nWriting application                      : My MP4Box GUI 0.6.0.6 &lt;http://my-mp4box-gui.zymichost.com&gt;\n\nVideo\nID                                       : 1\nFormat                                   : AVC\nFormat/Info                              : Advanced Video Codec\nFormat profile                           : &lt;a class=&quot;__cf_email__&quot; href=&quot;/cdn-cgi/l/email-protection&quot; data-cfemail=&quot;3b73525c537b770f150b&quot;&gt;[email&amp;#160;protected]&lt;/a&gt;&lt;script cf-hash='f9e31' type=&quot;text/javascript&quot;&gt;\n/* &lt;![CDATA[ */!function(){try{var t=&quot;currentScript&quot;in document?document.currentScript:function(){for(var t=document.getElementsByTagName(&quot;script&quot;),e=t.length;e--;)if(t[e].getAttribute(&quot;cf-hash&quot;))return t[e]}();if(t&amp;&amp;t.previousSibling){var e,r,n,i,c=t.previousSibling,a=c.getAttribute(&quot;data-cfemail&quot;);if(a){for(e=&quot;&quot;,r=parseInt(a.substr(0,2),16),n=2;a.length-n;n+=2)i=parseInt(a.substr(n,2),16)^r,e+=String.fromCharCode(i);e=document.createTextNode(e),c.parentNode.replaceChild(e,c)}}}catch(u){}}();/* ]]&gt; */&lt;/script&gt;\nFormat settings, CABAC                   : Yes\nFormat settings, ReFrames                : 7 frames\nCodec ID                                 : avc1\nCodec ID/Info                            : Advanced Video Coding\nDuration                                 : 2h 10mn\nBit rate                                 : 1 700 Kbps\nMaximum bit rate                         : 8 394 Kbps\nWidth                                    : 1 280 pixels\nHeight                                   : 688 pixels\nDisplay aspect ratio                     : 1.85:1\nFrame rate mode                          : Constant\nFrame rate                               : 23.976 fps\nColor space                              : YUV\nChroma subsampling                       : 4:2:0\nBit depth                                : 8 bits\nScan type                                : Progressive\nBits/(Pixel*Frame)                       : 0.081\nStream size                              : 1.55 GiB (79%)\nTitle                                    : 720p POA.mp4\nWriting library                          : x264 core 133 r2334 a3ac64b\nEncoding settings                        : nope\nLanguage                                 : English\nEncoded date                             : UTC 2014-11-05 04:55:33\nTagged date                              : UTC 2014-11-05 21:23:34\n\nAudio #1\nID                                       : 2\nFormat                                   : AAC\nFormat/Info                              : Advanced Audio Codec\nFormat profile                           : LC\nCodec ID                                 : 40\nDuration                                 : 2h 10mn\nBit rate mode                            : Variable\nBit rate                                 : 128 Kbps\nMaximum bit rate                         : 138 Kbps\nChannel count                            : 2 channels\nChannel positions                        : Front: L R\nSampling rate                            : 48.0 KHz\nCompression mode                         : Lossy\nDelay relative to video                  : 83ms\nStream size                              : 119 MiB (6%)\nTitle                                    : aac 2.0.mp4\nLanguage                                 : English\nEncoded date                             : UTC 2014-11-05 21:22:59\nTagged date                              : UTC 2014-11-05 21:23:34\n\nAudio #2\nID                                       : 3\nFormat                                   : AC-3\nFormat/Info                              : Audio Coding 3\nMode extension                           : CM (complete main)\nFormat settings, Endianness              : Big\nCodec ID                                 : ac-3\nDuration                                 : 2h 10mn\nBit rate mode                            : Constant\nBit rate                                 : 320 Kbps\nChannel count                            : 6 channels\nChannel positions                        : Front: L C R, Side: L R, LFE\nSampling rate                            : 48.0 KHz\nBit depth                                : 16 bits\nCompression mode                         : Lossy\nDelay relative to video                  : 83ms\nStream size                              : 299 MiB (15%)\nTitle                                    : ac3 5.1.ac3\nLanguage                                 : English\nEncoded date                             : UTC 2014-11-05 21:23:06\nTagged date                              : UTC 2014-11-05 21:23:34\n\n\n\nScreenshots - \n  &lt;a href=&quot;\nhttp://image.bayimg.com/0b4af3f1b42f54cca7738afd09488fd070e95df2.jpg&quot; rel=&quot;nofollow&quot; target=&quot;_NEW&quot;&gt;\nhttp://image.bayimg.com/0b4af3f1b42f54cca7738afd09488fd070e95df2.jpg&lt;/a&gt; \n  &lt;a href=&quot;\nhttp://image.bayimg.com/d6ace7266429bc533142cba2ad7f7e92e4f25ff8.jpg&quot; rel=&quot;nofollow&quot; target=&quot;_NEW&quot;&gt;\nhttp://image.bayimg.com/d6ace7266429bc533142cba2ad7f7e92e4f25ff8.jpg&lt;/a&gt; \n  &lt;a href=&quot;\nhttp://image.bayimg.com/900ff34bd2693b7e905cca4778e67fa1b4fcfc1c.jpg&quot; rel=&quot;nofollow&quot; target=&quot;_NEW&quot;&gt;\nhttp://image.bayimg.com/900ff34bd2693b7e905cca4778e67fa1b4fcfc1c.jpg&lt;/a&gt; \n  &lt;a href=&quot;\nhttp://image.bayimg.com/b0e87f14c51fcc059f624ac165705e9bc15b657b.jpg&quot; rel=&quot;nofollow&quot; target=&quot;_NEW&quot;&gt;\nhttp://image.bayimg.com/b0e87f14c51fcc059f624ac165705e9bc15b657b.jpg&lt;/a&gt; \n \nsignature \n  &lt;a href=&quot;\nhttp://image.bayimg.com/c8522bcf3521d834bcfb712accfc58a8c9f6d9fb.jpg&quot; rel=&quot;nofollow&quot; target=&quot;_NEW&quot;&gt;\nhttp://image.bayimg.com/c8522bcf3521d834bcfb712accfc58a8c9f6d9fb.jpg&lt;/a&gt;","torrent":{"xt":"urn:btih:11762372d336d19b5986620d79a13d4700817f05","amp;dn":"Dawn+of+the+Planet+of+the+Apes+720p+WEB-DL+HC+Subs+fiveofseven","amp;tr":["udp%3A%2F%2Ftracker.openbittorrent.com%3A80","udp%3A%2F%2Fopen.demonii.com%3A1337","udp%3A%2F%2Ftracker.coppersurfer.tk%3A6969","udp%3A%2F%2Fexodus.desync.com%3A6969"],"infoHash":"11762372d336d19b5986620d79a13d4700817f05","infoHashBuffer":{"type":"Buffer","data":[17,118,35,114,211,54,209,155,89,134,98,13,121,161,61,71,0,129,127,5]},"announce":[],"urlList":[]}}